<svg width="50px" height="49px" viewBox="0 0 50 49" fill="none" xmlns="http://www.w3.org/2000/svg" transform="rotate(0) scale(1, 1)">
<path d="M0.328125 8.75C0.328125 3.91751 4.24563 0 9.07812 0H40.5781C45.4106 0 49.3281 3.91751 49.3281 8.75V40.25C49.3281 45.0825 45.4106 49 40.5781 49H9.07812C4.24563 49 0.328125 45.0825 0.328125 40.25V8.75Z" fill="#131313" fill-opacity="0.1"/>
<path d="M24.8281 19.8334V15.1667H20.1614" stroke="#ffffff" stroke-width="2.33333" stroke-linecap="round" stroke-linejoin="round"/>
<path d="M31.8281 19.8333H17.8281C16.5395 19.8333 15.4948 20.878 15.4948 22.1666V31.5C15.4948 32.7886 16.5395 33.8333 17.8281 33.8333H31.8281C33.1168 33.8333 34.1615 32.7886 34.1615 31.5V22.1666C34.1615 20.878 33.1168 19.8333 31.8281 19.8333Z" stroke="#ffffff" stroke-width="2.33333" stroke-linecap="round" stroke-linejoin="round"/>
<path d="M13.1614 26.8333H15.4948" stroke="#ffffff" stroke-width="2.33333" stroke-linecap="round" stroke-linejoin="round"/>
<path d="M34.1614 26.8333H36.4948" stroke="#ffffff" stroke-width="2.33333" stroke-linecap="round" stroke-linejoin="round"/>
<path d="M28.3281 25.6667V28" stroke="#ffffff" stroke-width="2.33333" stroke-linecap="round" stroke-linejoin="round"/>
<path d="M21.3281 25.6667V28" stroke="#ffffff" stroke-width="2.33333" stroke-linecap="round" stroke-linejoin="round"/>
</svg>