<svg width="50px" height="50px" viewBox="0 0 50 50" fill="none" xmlns="http://www.w3.org/2000/svg" transform="rotate(0) scale(1, 1)">
<path d="M0.328125 9.25C0.328125 4.41751 4.24563 0.5 9.07812 0.5H40.5781C45.4106 0.5 49.3281 4.41751 49.3281 9.25V40.75C49.3281 45.5825 45.4106 49.5 40.5781 49.5H9.07812C4.24563 49.5 0.328125 45.5825 0.328125 40.75V9.25Z" fill="#030213" fill-opacity="0.1"/>
<path d="M14.3281 27.3333H17.8281C18.447 27.3333 19.0405 27.5792 19.478 28.0168C19.9156 28.4543 20.1615 29.0478 20.1615 29.6667V33.1667C20.1615 33.7855 19.9156 34.379 19.478 34.8166C19.0405 35.2542 18.447 35.5 17.8281 35.5H16.6615C16.0426 35.5 15.4491 35.2542 15.0115 34.8166C14.574 34.379 14.3281 33.7855 14.3281 33.1667V25C14.3281 22.2152 15.4344 19.5445 17.4035 17.5754C19.3726 15.6062 22.0434 14.5 24.8281 14.5C27.6129 14.5 30.2836 15.6062 32.2527 17.5754C34.2219 19.5445 35.3281 22.2152 35.3281 25V33.1667C35.3281 33.7855 35.0823 34.379 34.6447 34.8166C34.2071 35.2542 33.6136 35.5 32.9948 35.5H31.8281C31.2093 35.5 30.6158 35.2542 30.1782 34.8166C29.7406 34.379 29.4948 33.7855 29.4948 33.1667V29.6667C29.4948 29.0478 29.7406 28.4543 30.1782 28.0168C30.6158 27.5792 31.2093 27.3333 31.8281 27.3333H35.3281" stroke="#fdfdfd" stroke-width="2.33333" stroke-linecap="round" stroke-linejoin="round"/>
</svg>