<svg width="50px" height="49px" viewBox="0 0 50 49" fill="none" xmlns="http://www.w3.org/2000/svg" transform="rotate(0) scale(1, 1)">
<path d="M0.65625 8.75C0.65625 3.91751 4.57376 0 9.40625 0H40.9062C45.7387 0 49.6562 3.91751 49.6562 8.75V40.25C49.6562 45.0825 45.7387 49 40.9062 49H9.40625C4.57376 49 0.65625 45.0825 0.65625 40.25V8.75Z" fill="#030213" fill-opacity="0.1"/>
<path d="M32.1562 16.3333C32.775 16.3333 33.3685 16.5791 33.8061 17.0167C34.2437 17.4543 34.4895 18.0478 34.4895 18.6666V28.6136C34.4894 28.977 34.5741 29.3353 34.7369 29.6601L35.9829 32.1416C36.0728 32.3201 36.1154 32.5187 36.1065 32.7184C36.0977 32.9181 36.0377 33.1121 35.9323 33.2819C35.8269 33.4517 35.6796 33.5916 35.5046 33.6882C35.3296 33.7847 35.1327 33.8347 34.9329 33.8333H15.3795C15.1797 33.8347 14.9828 33.7847 14.8078 33.6882C14.6328 33.5916 14.4855 33.4517 14.3801 33.2819C14.2747 33.1121 14.2147 32.9181 14.2059 32.7184C14.197 32.5187 14.2396 32.3201 14.3295 32.1416L15.5755 29.6601C15.7383 29.3353 15.823 28.977 15.8229 28.6136V18.6666C15.8229 18.0478 16.0687 17.4543 16.5063 17.0167C16.9439 16.5791 17.5374 16.3333 18.1562 16.3333H32.1562Z" stroke="#fffefe" stroke-width="2.33333" stroke-linecap="round" stroke-linejoin="round"/>
<path d="M34.5526 29.1515H15.7599" stroke="#fffefe" stroke-width="2.33333" stroke-linecap="round" stroke-linejoin="round"/>
</svg>