<svg width="50px" height="50px" viewBox="0 0 50 50" fill="none" xmlns="http://www.w3.org/2000/svg" transform="rotate(0) scale(1, 1)">
<path d="M0.65625 9.25C0.65625 4.41751 4.57376 0.5 9.40625 0.5H40.9062C45.7387 0.5 49.6562 4.41751 49.6562 9.25V40.75C49.6562 45.5825 45.7387 49.5 40.9062 49.5H9.40625C4.57376 49.5 0.65625 45.5825 0.65625 40.75V9.25Z" fill="#030213" fill-opacity="0.1"/>
<path d="M15.8229 27.3334C15.6021 27.3341 15.3856 27.2722 15.1986 27.1548C15.0117 27.0375 14.8618 26.8694 14.7665 26.6703C14.6712 26.4711 14.6344 26.249 14.6603 26.0298C14.6862 25.8105 14.7738 25.6031 14.9129 25.4317L26.4629 13.5317C26.5495 13.4317 26.6676 13.3641 26.7977 13.34C26.9278 13.316 27.0622 13.3369 27.1789 13.3993C27.2956 13.4617 27.3875 13.5619 27.4398 13.6835C27.492 13.8051 27.5013 13.9408 27.4662 14.0684L25.2262 21.0917C25.1601 21.2685 25.138 21.4586 25.1616 21.6459C25.1851 21.8331 25.2538 22.0118 25.3616 22.1667C25.4695 22.3216 25.6133 22.448 25.7807 22.535C25.9481 22.6221 26.1342 22.6673 26.3229 22.6667H34.4895C34.7103 22.6659 34.9268 22.7278 35.1138 22.8452C35.3007 22.9626 35.4506 23.1306 35.5459 23.3298C35.6412 23.5289 35.678 23.751 35.6521 23.9703C35.6262 24.1895 35.5386 24.3969 35.3995 24.5684L23.8495 36.4684C23.7629 36.5684 23.6448 36.6359 23.5147 36.66C23.3846 36.6841 23.2502 36.6632 23.1335 36.6008C23.0168 36.5384 22.9249 36.4381 22.8726 36.3166C22.8204 36.195 22.8111 36.0593 22.8462 35.9317L25.0862 28.9084C25.1523 28.7316 25.1744 28.5414 25.1508 28.3542C25.1273 28.167 25.0586 27.9882 24.9508 27.8334C24.8429 27.6785 24.6991 27.5521 24.5317 27.465C24.3643 27.3779 24.1782 27.3327 23.9895 27.3334H15.8229Z" stroke="#ffffff" stroke-width="2.33333" stroke-linecap="round" stroke-linejoin="round"/>
</svg>