<svg width="50px" height="50px" viewBox="0 0 50 50" fill="none" xmlns="http://www.w3.org/2000/svg" transform="rotate(0) scale(1, 1)">
<path d="M0.984375 9.25C0.984375 4.41751 4.90188 0.5 9.73438 0.5H41.2344C46.0669 0.5 49.9844 4.41751 49.9844 9.25V40.75C49.9844 45.5825 46.0669 49.5 41.2344 49.5H9.73437C4.90188 49.5 0.984375 45.5825 0.984375 40.75V9.25Z" fill="#030213" fill-opacity="0.1"/>
<path d="M25.4844 22.6666V25.2333L27.351 26.4" stroke="#fff7f7" stroke-width="2.33333" stroke-linecap="round" stroke-linejoin="round"/>
<path d="M30.3028 19.9366L29.3578 15.2116C29.2511 14.6745 28.9589 14.192 28.5323 13.8486C28.1057 13.5052 27.5719 13.3228 27.0244 13.3333H23.8978C23.3502 13.3228 22.8165 13.5052 22.3899 13.8486C21.9633 14.192 21.6711 14.6745 21.5644 15.2116L20.6544 19.9366" stroke="#fff7f7" stroke-width="2.33333" stroke-linecap="round" stroke-linejoin="round"/>
<path d="M20.6777 30.0867L21.6111 34.7533C21.7178 35.2904 22.01 35.7729 22.4365 36.1163C22.8631 36.4597 23.3969 36.6421 23.9444 36.6317H27.1177C27.6653 36.6421 28.199 36.4597 28.6256 36.1163C29.0522 35.7729 29.3444 35.2904 29.4511 34.7533L30.3961 30.0283" stroke="#fff7f7" stroke-width="2.33333" stroke-linecap="round" stroke-linejoin="round"/>
<path d="M25.4844 32C29.3504 32 32.4844 28.866 32.4844 25C32.4844 21.134 29.3504 18 25.4844 18C21.6184 18 18.4844 21.134 18.4844 25C18.4844 28.866 21.6184 32 25.4844 32Z" stroke="#fff7f7" stroke-width="2.33333" stroke-linecap="round" stroke-linejoin="round"/>
</svg>