<svg width="50px" height="49px" viewBox="0 0 50 49" fill="none" xmlns="http://www.w3.org/2000/svg" transform="rotate(0) scale(1, 1)">
<path d="M0.984375 8.75C0.984375 3.91751 4.90188 0 9.73438 0H41.2344C46.0669 0 49.9844 3.91751 49.9844 8.75V40.25C49.9844 45.0825 46.0669 49 41.2344 49H9.73437C4.90188 49 0.984375 45.0825 0.984375 40.25V8.75Z" fill="#030213" fill-opacity="0.1"/>
<path d="M31.3177 12.8333H19.6511C18.3624 12.8333 17.3177 13.878 17.3177 15.1666V33.8333C17.3177 35.122 18.3624 36.1666 19.6511 36.1666H31.3177C32.6064 36.1666 33.6511 35.122 33.6511 33.8333V15.1666C33.6511 13.878 32.6064 12.8333 31.3177 12.8333Z" stroke="#ffffff" stroke-width="2.33333" stroke-linecap="round" stroke-linejoin="round"/>
<path d="M25.4844 31.5H25.496" stroke="#ffffff" stroke-width="2.33333" stroke-linecap="round" stroke-linejoin="round"/>
</svg>